# xmcd CD database file
#
# Track frame offsets:
#	150
#	20848
#	39487
#	53068
#	74226
#	87270
#	100818
#	115986
#	133276
#	148746
#	161173
#	181441
#
# Disc length: 2683 seconds
#
# Revision: 0
# Processed by: cddbd v1.4PL0 Copyright (c) Steve Scherf et al.
# Submitted via: CDex 1.51
#
DISCID=b80a790c
DTITLE=Freddie White - Lost and Found - Live On Tour
DYEAR=1979
DGENRE=Jazz
TTITLE0=Po-Jama People
TTITLE1=Gods Song
TTITLE2=My Walking Stick
TTITLE3=Desperadoes Waiting For A Train
TTITLE4=Big Time Woman
TTITLE5=Long Distance Love
TTITLE6=Smoke Gets In Your Eyes
TTITLE7=Down To Zero
TTITLE8=Marie
TTITLE9=Aint Misbehaving
TTITLE10=Trouble Child
TTITLE11=In Germany Before The War
EXTD=YEAR: 1979
EXTT0=
EXTT1=
EXTT2=
EXTT3=
EXTT4=
EXTT5=
EXTT6=
EXTT7=
EXTT8=
EXTT9=
EXTT10=
EXTT11=
PLAYORDER=
